{
	"asset":{
		"generator":"Khronos glTF Blender I/O v3.5.30",
		"version":"2.0"
	},
	"scene":0,
	"scenes":[
		{
			"name":"Scene",
			"nodes":[
				0,
				1,
				2,
				3,
				4,
				5
			]
		}
	],
	"nodes":[
		{
			"mesh":0,
			"name":"LowParachoquesOpen"
		},
		{
			"mesh":1,
			"name":"LowPuertaDelanteraOpen"
		},
		{
			"mesh":2,
			"name":"LowPuertaTraceraOpen"
		},
		{
			"mesh":3,
			"name":"LowParachoquesClose"
		},
		{
			"mesh":4,
			"name":"LowPuertaDelanteraClose"
		},
		{
			"mesh":5,
			"name":"LowPuertaTraceraClose"
		}
	],
	"meshes":[
		{
			"name":"8.003",
			"primitives":[
				{
					"attributes":{
						"POSITION":0
					},
					"indices":1
				}
			]
		},
		{
			"name":"4.003",
			"primitives":[
				{
					"attributes":{
						"POSITION":2
					},
					"indices":3
				}
			]
		},
		{
			"name":"5.003",
			"primitives":[
				{
					"attributes":{
						"POSITION":4
					},
					"indices":5
				}
			]
		},
		{
			"name":"97.002",
			"primitives":[
				{
					"attributes":{
						"POSITION":6
					},
					"indices":7
				}
			]
		},
		{
			"name":"4.006",
			"primitives":[
				{
					"attributes":{
						"POSITION":8
					},
					"indices":9
				}
			]
		},
		{
			"name":"2.005",
			"primitives":[
				{
					"attributes":{
						"POSITION":10
					},
					"indices":11
				}
			]
		}
	],
	"accessors":[
		{
			"bufferView":0,
			"componentType":5126,
			"count":1082,
			"max":[
				4.193429946899414,
				2.2071616649627686,
				1.047147274017334
			],
			"min":[
				0.8827967643737793,
				0.27160024642944336,
				-1.0343494415283203
			],
			"type":"VEC3"
		},
		{
			"bufferView":1,
			"componentType":5123,
			"count":6468,
			"type":"SCALAR"
		},
		{
			"bufferView":2,
			"componentType":5126,
			"count":514,
			"max":[
				1.6391571760177612,
				1.5650023221969604,
				-1.0613027811050415
			],
			"min":[
				-0.602161705493927,
				0.33166056871414185,
				-2.630441665649414
			],
			"type":"VEC3"
		},
		{
			"bufferView":3,
			"componentType":5123,
			"count":3048,
			"type":"SCALAR"
		},
		{
			"bufferView":4,
			"componentType":5126,
			"count":210,
			"max":[
				0.26149818301200867,
				1.5649043321609497,
				-1.1358773708343506
			],
			"min":[
				-1.2898062467575073,
				0.34622782468795776,
				-2.271740436553955
			],
			"type":"VEC3"
		},
		{
			"bufferView":5,
			"componentType":5123,
			"count":1248,
			"type":"SCALAR"
		},
		{
			"bufferView":6,
			"componentType":5126,
			"count":754,
			"max":[
				2.2702229022979736,
				0.9529464840888977,
				0.8952890038490295
			],
			"min":[
				1.5276867151260376,
				0.27893656492233276,
				-0.8952908515930176
			],
			"type":"VEC3"
		},
		{
			"bufferView":7,
			"componentType":5123,
			"count":4278,
			"type":"SCALAR"
		},
		{
			"bufferView":8,
			"componentType":5126,
			"count":112,
			"max":[
				0.8169748783111572,
				1.5650023221969604,
				-0.6359560489654541
			],
			"min":[
				-0.34195220470428467,
				0.33166056871414185,
				-0.8834406137466431
			],
			"type":"VEC3"
		},
		{
			"bufferView":9,
			"componentType":5123,
			"count":495,
			"type":"SCALAR"
		},
		{
			"bufferView":10,
			"componentType":5126,
			"count":75,
			"max":[
				-0.19319680333137512,
				1.564906358718872,
				-0.6362912654876709
			],
			"min":[
				-1.1519242525100708,
				0.3462280035018921,
				-0.9179375171661377
			],
			"type":"VEC3"
		},
		{
			"bufferView":11,
			"componentType":5123,
			"count":330,
			"type":"SCALAR"
		}
	],
	"bufferViews":[
		{
			"buffer":0,
			"byteLength":12984,
			"byteOffset":0,
			"target":34962
		},
		{
			"buffer":0,
			"byteLength":12936,
			"byteOffset":12984,
			"target":34963
		},
		{
			"buffer":0,
			"byteLength":6168,
			"byteOffset":25920,
			"target":34962
		},
		{
			"buffer":0,
			"byteLength":6096,
			"byteOffset":32088,
			"target":34963
		},
		{
			"buffer":0,
			"byteLength":2520,
			"byteOffset":38184,
			"target":34962
		},
		{
			"buffer":0,
			"byteLength":2496,
			"byteOffset":40704,
			"target":34963
		},
		{
			"buffer":0,
			"byteLength":9048,
			"byteOffset":43200,
			"target":34962
		},
		{
			"buffer":0,
			"byteLength":8556,
			"byteOffset":52248,
			"target":34963
		},
		{
			"buffer":0,
			"byteLength":1344,
			"byteOffset":60804,
			"target":34962
		},
		{
			"buffer":0,
			"byteLength":990,
			"byteOffset":62148,
			"target":34963
		},
		{
			"buffer":0,
			"byteLength":900,
			"byteOffset":63140,
			"target":34962
		},
		{
			"buffer":0,
			"byteLength":660,
			"byteOffset":64040,
			"target":34963
		}
	],
	"buffers":[
		{
			"byteLength":64700,
			"uri":"low.bin"
		}
	]
}
