{
	"asset":{
		"generator":"Khronos glTF Blender I/O v3.5.30",
		"version":"2.0"
	},
	"scene":0,
	"scenes":[
		{
			"name":"Scene",
			"nodes":[
				0,
				1,
				2
			]
		}
	],
	"nodes":[
		{
			"mesh":0,
			"name":"ParedNeon"
		},
		{
			"mesh":1,
			"name":"CirculoNeon",
			"rotation":[
				0,
				-0.7071067094802856,
				0,
				0.7071068286895752
			]
		},
		{
			"mesh":2,
			"name":"ParedNeon2"
		}
	],
	"meshes":[
		{
			"name":"Cube",
			"primitives":[
				{
					"attributes":{
						"POSITION":0,
						"TEXCOORD_0":1,
						"NORMAL":2
					},
					"indices":3
				}
			]
		},
		{
			"name":"Plane.001",
			"primitives":[
				{
					"attributes":{
						"POSITION":4,
						"TEXCOORD_0":5,
						"NORMAL":6
					},
					"indices":7
				}
			]
		},
		{
			"name":"Cube.001",
			"primitives":[
				{
					"attributes":{
						"POSITION":8,
						"TEXCOORD_0":9,
						"NORMAL":10
					},
					"indices":11
				}
			]
		}
	],
	"accessors":[
		{
			"bufferView":0,
			"componentType":5126,
			"count":8,
			"max":[
				-7.736115455627441,
				3.8906521797180176,
				5.143773555755615
			],
			"min":[
				-13.906063079833984,
				0.0036258697509765625,
				-5.097012996673584
			],
			"type":"VEC3"
		},
		{
			"bufferView":1,
			"componentType":5126,
			"count":8,
			"type":"VEC2"
		},
		{
			"bufferView":2,
			"componentType":5126,
			"count":8,
			"type":"VEC3"
		},
		{
			"bufferView":3,
			"componentType":5123,
			"count":12,
			"type":"SCALAR"
		},
		{
			"bufferView":4,
			"componentType":5126,
			"count":240,
			"max":[
				16.12713050842285,
				2.697777271270752,
				16.12713050842285
			],
			"min":[
				-16.12712860107422,
				1.221099853515625,
				-16.12712860107422
			],
			"type":"VEC3"
		},
		{
			"bufferView":5,
			"componentType":5126,
			"count":240,
			"type":"VEC2"
		},
		{
			"bufferView":6,
			"componentType":5126,
			"count":240,
			"type":"VEC3"
		},
		{
			"bufferView":7,
			"componentType":5123,
			"count":360,
			"type":"SCALAR"
		},
		{
			"bufferView":8,
			"componentType":5126,
			"count":8,
			"max":[
				13.906064987182617,
				3.8906521797180176,
				5.097010612487793
			],
			"min":[
				7.736113548278809,
				0.0036258697509765625,
				-5.143778324127197
			],
			"type":"VEC3"
		},
		{
			"bufferView":9,
			"componentType":5126,
			"count":8,
			"type":"VEC2"
		},
		{
			"bufferView":10,
			"componentType":5126,
			"count":8,
			"type":"VEC3"
		},
		{
			"bufferView":11,
			"componentType":5123,
			"count":12,
			"type":"SCALAR"
		}
	],
	"bufferViews":[
		{
			"buffer":0,
			"byteLength":96,
			"byteOffset":0,
			"target":34962
		},
		{
			"buffer":0,
			"byteLength":64,
			"byteOffset":96,
			"target":34962
		},
		{
			"buffer":0,
			"byteLength":96,
			"byteOffset":160,
			"target":34962
		},
		{
			"buffer":0,
			"byteLength":24,
			"byteOffset":256,
			"target":34963
		},
		{
			"buffer":0,
			"byteLength":2880,
			"byteOffset":280,
			"target":34962
		},
		{
			"buffer":0,
			"byteLength":1920,
			"byteOffset":3160,
			"target":34962
		},
		{
			"buffer":0,
			"byteLength":2880,
			"byteOffset":5080,
			"target":34962
		},
		{
			"buffer":0,
			"byteLength":720,
			"byteOffset":7960,
			"target":34963
		},
		{
			"buffer":0,
			"byteLength":96,
			"byteOffset":8680,
			"target":34962
		},
		{
			"buffer":0,
			"byteLength":64,
			"byteOffset":8776,
			"target":34962
		},
		{
			"buffer":0,
			"byteLength":96,
			"byteOffset":8840,
			"target":34962
		},
		{
			"buffer":0,
			"byteLength":24,
			"byteOffset":8936,
			"target":34963
		}
	],
	"buffers":[
		{
			"byteLength":8960,
			"uri":"ambiente.bin"
		}
	]
}
